<svg width="94" height="94" viewBox="0 0 94 94" fill="none" xmlns="http://www.w3.org/2000/svg">
<path d="M58.1918 16.5381C59.259 17.0135 60.0936 17.8933 60.5123 18.984C60.9309 20.0747 60.8993 21.287 60.4243 22.3543L36.9243 75.2293C36.6971 75.77 36.3643 76.2599 35.9453 76.6702C35.5263 77.0806 35.0296 77.4032 34.4844 77.6191C33.9391 77.835 33.3562 77.9399 32.7699 77.9276C32.1836 77.9153 31.6056 77.7861 31.0699 77.5476C30.5341 77.309 30.0514 76.9659 29.65 76.5384C29.2485 76.1109 28.9365 75.6075 28.7321 75.0578C28.5277 74.5081 28.4352 73.9232 28.4598 73.3372C28.4844 72.7513 28.6258 72.1762 28.8756 71.6456L52.3756 18.7706C52.851 17.7034 53.7308 16.8688 54.8215 16.4501C55.9121 16.0315 57.1244 16.0631 58.1918 16.5381ZM26.4257 30.4912C27.2982 31.2669 27.8273 32.3571 27.8967 33.5225C27.9661 34.6879 27.5702 35.8332 26.7958 36.707L17.6426 47L26.7958 57.293C27.5718 58.1671 27.9687 59.3136 27.8993 60.4804C27.8299 61.6472 27.2998 62.7386 26.4257 63.5146C25.9929 63.8988 25.4886 64.194 24.9417 64.3833C24.3948 64.5727 23.8159 64.6524 23.2382 64.6181C22.0714 64.5486 20.98 64.0186 20.2041 63.1445L8.45405 49.9257C7.73799 49.1193 7.3425 48.0784 7.3425 47C7.3425 45.9215 7.73799 44.8806 8.45405 44.0742L20.2041 30.8555C20.5888 30.4212 21.0554 30.0672 21.5773 29.8138C22.0992 29.5604 22.6659 29.4125 23.2451 29.3787C23.8242 29.3448 24.4044 29.4257 24.9522 29.6166C25.5 29.8075 26.0048 30.1047 26.4374 30.4912M67.5859 30.4912C68.0183 30.1065 68.5223 29.8108 69.069 29.6209C69.6157 29.431 70.1944 29.3507 70.7722 29.3845C71.3499 29.4184 71.9154 29.5657 72.4362 29.8181C72.957 30.0704 73.423 30.4229 73.8075 30.8555L85.5575 44.0742C86.2736 44.8806 86.6691 45.9215 86.6691 47C86.6691 48.0784 86.2736 49.1193 85.5575 49.9257L73.8075 63.1445C73.0316 64.0186 71.9402 64.5486 70.7734 64.6181C69.6066 64.6875 68.46 64.2905 67.5859 63.5146C66.7118 62.7386 66.1817 61.6472 66.1123 60.4804C66.0429 59.3136 66.4398 58.1671 67.2158 57.293L76.3514 47L67.2099 36.707C66.4356 35.8332 66.0396 34.6879 66.109 33.5225C66.1784 32.3571 66.7134 31.2669 67.5859 30.4912Z" fill="black"/>
</svg>
